{
  "accessors": [
    {
      "bufferView": 2,
      "componentType": 5126,
      "count": 65533,
      "max": [
        1.1771485805511475,
        1.2725683450698853,
        0.6462553143501282
      ],
      "min": [
        -1.1968873739242554,
        -1.3349038362503052,
        -0.937449038028717
      ],
      "type": "VEC3"
    },
    {
      "bufferView": 2,
      "byteOffset": 786396,
      "componentType": 5126,
      "count": 65533,
      "max": [
        0.9999992251396179,
        0.9999990463256836,
        0.9999979734420776
      ],
      "min": [
        -0.9999954104423523,
        -0.9999899864196777,
        -1.0
      ],
      "type": "VEC3"
    },
    {
      "bufferView": 3,
      "componentType": 5126,
      "count": 65533,
      "max": [
        1.0,
        0.9999983906745911,
        0.9995172619819641,
        1.0
      ],
      "min": [
        -0.9999991655349731,
        -0.9999986886978149,
        -0.9999998807907104,
        1.0
      ],
      "type": "VEC4"
    },
    {
      "bufferView": 1,
      "componentType": 5126,
      "count": 65533,
      "max": [
        5.4982523918151855,
        3.7745375633239746
      ],
      "min": [
        -4.498250961303711,
        -3.0879406929016113
      ],
      "type": "VEC2"
    },
    {
      "bufferView": 0,
      "componentType": 5125,
      "count": 351477,
      "type": "SCALAR"
    },
    {
      "bufferView": 2,
      "byteOffset": 1572792,
      "componentType": 5126,
      "count": 41955,
      "max": [
        1.3030565977096558,
        1.1917424201965332,
        0.6611220836639404
      ],
      "min": [
        -1.2941081523895264,
        -0.9684809446334839,
        -0.9375512599945068
      ],
      "type": "VEC3"
    },
    {
      "bufferView": 2,
      "byteOffset": 2076252,
      "componentType": 5126,
      "count": 41955,
      "max": [
        0.9999748468399048,
        0.9999879598617554,
        0.9998822212219238
      ],
      "min": [
        -0.9999952912330627,
        -0.9999315738677979,
        -1.0
      ],
      "type": "VEC3"
    },
    {
      "bufferView": 3,
      "byteOffset": 1048528,
      "componentType": 5126,
      "count": 41955,
      "max": [
        1.0,
        0.9989234209060669,
        0.9978359341621399,
        1.0
      ],
      "min": [
        -0.9999949932098389,
        -0.9990383386611938,
        -0.9999889135360718,
        1.0
      ],
      "type": "VEC4"
    },
    {
      "bufferView": 1,
      "byteOffset": 524264,
      "componentType": 5126,
      "count": 41955,
      "max": [
        5.498249053955078,
        3.7723350524902344
      ],
      "min": [
        -4.4909281730651855,
        -3.087939977645874
      ],
      "type": "VEC2"
    },
    {
      "bufferView": 0,
      "byteOffset": 1405908,
      "componentType": 5125,
      "count": 238347,
      "type": "SCALAR"
    }
  ],
  "asset": {
    "extras": {
      "author": "Pixion (https://sketchfab.com/pixion)",
      "license": "CC-BY-4.0 (http://creativecommons.org/licenses/by/4.0/)",
      "source": "https://sketchfab.com/3d-models/bean-bag-2461c404fef444e186403b72e2d73c4d",
      "title": "Bean Bag"
    },
    "generator": "Sketchfab-13.74.0",
    "version": "2.0"
  },
  "bufferViews": [
    {
      "buffer": 0,
      "byteLength": 2359296,
      "name": "floatBufferViews",
      "target": 34963
    },
    {
      "buffer": 0,
      "byteLength": 859904,
      "byteOffset": 2359296,
      "byteStride": 8,
      "name": "floatBufferViews",
      "target": 34962
    },
    {
      "buffer": 0,
      "byteLength": 2579712,
      "byteOffset": 3219200,
      "byteStride": 12,
      "name": "floatBufferViews",
      "target": 34962
    },
    {
      "buffer": 0,
      "byteLength": 1719808,
      "byteOffset": 5798912,
      "byteStride": 16,
      "name": "floatBufferViews",
      "target": 34962
    }
  ],
  "buffers": [
    {
      "byteLength": 7518720,
      "uri": "scene.bin"
    }
  ],
  "extensionsRequired": [
    "KHR_materials_pbrSpecularGlossiness"
  ],
  "extensionsUsed": [
    "KHR_materials_pbrSpecularGlossiness"
  ],
  "images": [
    {
      "uri": "textures/Material.001_specularGlossiness.jpeg"
    },
    {
      "uri": "textures/Material.001_normal.png"
    }
  ],
  "materials": [
    {
      "doubleSided": true,
      "extensions": {
        "KHR_materials_pbrSpecularGlossiness": {
          "diffuseFactor": [
            0.8,
            0.0224985,
            0.0097017,
            1.0
          ],
          "glossinessFactor": 0.04178571309557104,
          "specularFactor": [
            1.0,
            1.0,
            1.0
          ],
          "specularGlossinessTexture": {
            "index": 0
          }
        }
      },
      "name": "Material.001",
      "normalTexture": {
        "index": 1
      }
    }
  ],
  "meshes": [
    {
      "name": "Roundcube_Material.001_0",
      "primitives": [
        {
          "attributes": {
            "NORMAL": 1,
            "POSITION": 0,
            "TANGENT": 2,
            "TEXCOORD_0": 3
          },
          "indices": 4,
          "material": 0,
          "mode": 4
        }
      ]
    },
    {
      "name": "Roundcube_Material.001_0",
      "primitives": [
        {
          "attributes": {
            "NORMAL": 6,
            "POSITION": 5,
            "TANGENT": 7,
            "TEXCOORD_0": 8
          },
          "indices": 9,
          "material": 0,
          "mode": 4
        }
      ]
    }
  ],
  "nodes": [
    {
      "children": [
        1
      ],
      "matrix": [
        1.0,
        0.0,
        0.0,
        0.0,
        0.0,
        2.220446049250313e-16,
        -1.0,
        0.0,
        0.0,
        1.0,
        2.220446049250313e-16,
        0.0,
        0.0,
        0.0,
        0.0,
        1.0
      ],
      "name": "Sketchfab_model"
    },
    {
      "children": [
        2
      ],
      "matrix": [
        0.009999999776482582,
        0.0,
        0.0,
        0.0,
        0.0,
        0.0,
        0.009999999776482582,
        0.0,
        0.0,
        -0.009999999776482582,
        0.0,
        0.0,
        0.0,
        0.0,
        0.0,
        1.0
      ],
      "name": "fbbe7fbc719b4ff0a3abe7317441f673.fbx"
    },
    {
      "children": [
        3
      ],
      "name": "RootNode"
    },
    {
      "children": [
        4,
        5
      ],
      "matrix": [
        100.0,
        0.0,
        0.0,
        0.0,
        0.0,
        -1.629206793918314e-05,
        -99.99999999999868,
        0.0,
        0.0,
        99.99999999999868,
        -1.629206793918314e-05,
        0.0,
        0.0,
        96.47769927978516,
        0.0,
        1.0
      ],
      "name": "Roundcube"
    },
    {
      "mesh": 0,
      "name": "Roundcube_Material.001_0"
    },
    {
      "mesh": 1,
      "name": "Roundcube_Material.001_0"
    }
  ],
  "samplers": [
    {
      "magFilter": 9729,
      "minFilter": 9987,
      "wrapS": 10497,
      "wrapT": 10497
    }
  ],
  "scene": 0,
  "scenes": [
    {
      "name": "Sketchfab_Scene",
      "nodes": [
        0
      ]
    }
  ],
  "textures": [
    {
      "sampler": 0,
      "source": 0
    },
    {
      "sampler": 0,
      "source": 1
    }
  ]
}
